<?xml version="1.0" standalone="no"?>
<!DOCTYPE svg PUBLIC "-//W3C//DTD SVG 20010904//EN"
 "http://www.w3.org/TR/2001/REC-SVG-20010904/DTD/svg10.dtd">
<svg version="1.0" xmlns="http://www.w3.org/2000/svg"
 width="700.000000pt" height="700.000000pt" viewBox="0 0 700.000000 700.000000"
 preserveAspectRatio="xMidYMid meet">
<metadata>
Created by potrace 1.14, written by Peter Selinger 2001-2017
</metadata>
<g transform="translate(0.000000,700.000000) scale(0.100000,-0.100000)"
fill="#000000" stroke="none">
<path d="M2657 6412 c-120 -2 -128 -4 -115 -20 12 -16 11 -16 -6 -2 -22 18
-68 21 -78 6 -5 -7 -8 -7 -8 -1 0 14 -163 6 -172 -9 -6 -8 -8 -8 -8 1 0 7 -12
10 -32 8 -18 -2 -33 -4 -33 -5 0 0 -34 -3 -75 -5 -80 -5 -162 -13 -195 -19
-11 -2 -45 -7 -76 -10 -90 -11 -180 -31 -180 -41 0 -6 -3 -12 -6 -15 -4 -3 -3
1 2 9 6 11 1 12 -31 7 -21 -4 -41 -12 -42 -17 -2 -5 -8 -6 -13 -3 -10 6 -119
-24 -129 -35 -3 -3 -14 -8 -25 -9 -11 -2 -38 -13 -59 -23 -22 -10 -45 -19 -52
-19 -7 0 -17 -7 -22 -16 -5 -9 -13 -15 -18 -15 -19 2 -44 -11 -44 -21 0 -6 -3
-8 -6 -5 -4 4 -20 -4 -36 -16 -17 -12 -42 -29 -57 -38 -14 -9 -25 -22 -23 -29
1 -6 -2 -9 -8 -5 -12 8 -71 -45 -64 -57 3 -5 2 -8 -3 -7 -22 5 -43 -14 -38
-35 4 -14 3 -17 -3 -8 -7 11 -12 11 -23 -1 -55 -58 -150 -199 -144 -215 2 -7
1 -11 -4 -8 -5 3 -25 -30 -44 -73 -55 -121 -93 -243 -122 -400 -2 -13 -7 -26
-10 -29 -2 -3 1 -12 8 -20 9 -13 9 -14 0 -8 -9 5 -13 -1 -14 -21 0 -15 -2 -35
-4 -43 -8 -37 -16 -91 -19 -136 -2 -27 -7 -78 -10 -114 -25 -236 -42 -1080
-22 -1080 8 0 8 -3 1 -8 -12 -8 -12 -1030 0 -1322 4 -96 7 -182 7 -190 1 -8 6
-18 12 -22 8 -6 8 -8 0 -8 -6 0 -10 -12 -8 -27 2 -16 6 -66 10 -113 4 -47 8
-96 9 -110 2 -14 3 -35 4 -48 1 -16 5 -21 14 -16 9 6 9 5 0 -7 -8 -10 -9 -28
-2 -64 5 -28 11 -64 14 -80 2 -17 6 -42 9 -55 3 -14 8 -36 10 -50 8 -39 15
-70 21 -90 3 -10 8 -27 10 -37 2 -10 11 -38 20 -63 9 -25 18 -54 21 -64 11
-56 156 -316 175 -316 5 0 9 -5 9 -11 0 -16 132 -149 142 -143 5 3 7 1 6 -4
-3 -9 33 -41 90 -81 28 -20 35 -21 50 -9 15 12 16 11 3 -5 -12 -16 -4 -21 93
-68 59 -28 114 -48 122 -45 8 3 13 2 10 -3 -7 -11 71 -34 86 -25 7 4 8 3 4 -4
-4 -7 2 -13 16 -16 13 -3 52 -12 88 -20 139 -31 164 -36 280 -51 14 -2 56 -7
95 -10 38 -4 72 -8 74 -11 2 -2 11 2 19 9 13 9 14 9 8 0 -4 -7 -2 -13 3 -13 6
0 11 6 11 13 0 9 2 9 8 0 7 -12 49 -15 362 -30 163 -7 1886 -7 2020 0 52 3
151 9 220 12 69 4 130 11 137 16 7 7 14 6 18 -1 3 -6 10 -8 14 -5 5 2 39 7 77
10 38 3 80 7 94 10 14 3 48 8 75 11 28 3 87 14 133 25 45 10 92 19 103 19 11
0 18 3 16 8 -3 4 11 8 31 9 19 1 38 5 41 10 3 4 17 9 31 11 13 1 27 6 30 10 3
4 14 9 25 10 11 2 22 7 25 10 3 4 12 8 20 10 30 5 70 24 66 31 -3 4 5 8 16 8
39 3 180 97 264 176 108 102 247 291 227 310 -3 4 -2 7 3 7 9 0 23 26 55 105
7 17 13 32 14 35 1 3 5 14 9 25 27 71 49 155 50 189 1 19 4 32 7 30 8 -5 21
74 14 86 -3 4 -1 10 4 12 4 1 11 28 15 58 4 30 8 66 10 80 4 25 12 101 21 190
3 25 7 96 10 158 3 63 7 118 11 123 3 5 0 9 -6 9 -6 0 -8 5 -4 12 14 22 16
162 17 1100 1 803 -1 939 -14 954 -8 10 -9 15 -2 11 17 -11 9 159 -9 181 -9
11 -10 14 -1 8 14 -8 11 79 -13 324 -3 36 -6 73 -6 82 1 10 -3 20 -8 23 -4 3
-6 14 -3 24 3 10 0 22 -6 25 -5 4 -8 13 -5 21 11 28 -51 305 -68 305 -5 0 -7
4 -4 9 6 9 -22 102 -33 111 -3 3 -8 14 -9 25 -11 62 -131 256 -204 328 -21 21
-38 43 -38 49 0 6 -7 7 -16 4 -8 -3 -13 -2 -10 3 8 12 -19 33 -29 23 -5 -4 -5
-2 -2 4 3 6 -2 17 -11 25 -53 45 -92 70 -102 64 -6 -4 -9 -1 -8 7 2 7 -5 12
-14 12 -10 -1 -16 2 -13 6 6 10 -138 88 -169 92 -12 2 -27 9 -35 16 -8 8 -22
11 -33 9 -10 -3 -16 -2 -14 2 3 4 -16 13 -42 20 -26 7 -58 17 -72 22 -24 8
-194 42 -270 53 -19 3 -46 8 -60 10 -37 6 -147 17 -230 22 -39 2 -77 7 -82 11
-7 4 -8 1 -3 -7 6 -9 4 -11 -6 -5 -7 5 -40 10 -73 11 -33 2 -70 5 -83 9 -18 4
-23 2 -17 -6 5 -8 3 -9 -7 -4 -20 13 -58 15 -65 4 -4 -7 -10 -7 -18 0 -15 13
-517 20 -509 7 4 -5 0 -6 -7 -1 -21 13 -81 15 -73 2 4 -6 1 -7 -8 -1 -13 8
-951 13 -1252 6z m1513 -116 c-7 -7 -13 -7 -20 0 -6 6 -3 10 10 10 13 0 16 -4
10 -10z m-2555 -76 c3 -6 -1 -7 -9 -4 -18 7 -21 14 -7 14 6 0 13 -4 16 -10z
m1972 -175 c0 -8 -4 -12 -9 -9 -5 3 -6 10 -3 15 9 13 12 11 12 -6z m-1583 -3
c3 -5 -1 -9 -9 -9 -8 0 -12 4 -9 9 3 4 7 8 9 8 2 0 6 -4 9 -8z m436 4 c0 -2
-8 -10 -17 -17 -16 -13 -17 -12 -4 4 13 16 21 21 21 13z m1785 -5 c3 -5 2 -12
-3 -15 -5 -3 -9 1 -9 9 0 17 3 19 12 6z m-1645 -17 c0 -8 -19 -13 -24 -6 -3 5
1 9 9 9 8 0 15 -2 15 -3z m1920 -40 c0 -8 -19 -13 -24 -6 -3 5 1 9 9 9 8 0 15
-2 15 -3z m305 -12 c-3 -3 -11 0 -18 7 -9 10 -8 11 6 5 10 -3 15 -9 12 -12z
m-3830 -92 c-3 -5 -12 -10 -18 -10 -7 0 -6 4 3 10 19 12 23 12 15 0z m1669 2
c3 -5 -1 -9 -9 -9 -8 0 -12 4 -9 9 3 4 7 8 9 8 2 0 6 -4 9 -8z m3441 -41 c3
-5 2 -12 -3 -15 -5 -3 -9 1 -9 9 0 17 3 19 12 6z m-1860 -110 c3 -5 2 -12 -3
-15 -5 -3 -9 1 -9 9 0 17 3 19 12 6z m255 -5 c0 -2 -8 -10 -17 -17 -16 -13
-17 -12 -4 4 13 16 21 21 21 13z m-1910 -22 c0 -8 -19 -13 -24 -6 -3 5 1 9 9
9 8 0 15 -2 15 -3z m800 -48 c-7 -7 -13 -7 -20 0 -6 6 -3 10 10 10 13 0 16 -4
10 -10z m320 0 c-7 -7 -13 -7 -20 0 -6 6 -3 10 10 10 13 0 16 -4 10 -10z
m2237 -11 c0 -8 -4 -12 -9 -9 -5 3 -6 10 -3 15 9 13 12 11 12 -6z m-5107 -21
c0 -8 -19 -13 -24 -6 -3 5 1 9 9 9 8 0 15 -2 15 -3z m1561 -71 c13 -16 12 -17
-3 -4 -10 7 -18 15 -18 17 0 8 8 3 21 -13z m3143 9 c3 -5 -1 -9 -9 -9 -8 0
-12 4 -9 9 3 4 7 8 9 8 2 0 6 -4 9 -8z m-2539 -151 c3 -5 2 -12 -3 -15 -5 -3
-9 1 -9 9 0 17 3 19 12 6z m440 0 c3 -5 2 -12 -3 -15 -5 -3 -9 1 -9 9 0 17 3
19 12 6z m202 -6 c0 -8 -4 -12 -9 -9 -5 3 -6 10 -3 15 9 13 12 11 12 -6z m478
6 c3 -5 2 -12 -3 -15 -5 -3 -9 1 -9 9 0 17 3 19 12 6z m-2775 -9 c0 -5 -7 -9
-15 -9 -8 0 -12 4 -9 9 3 4 9 8 15 8 5 0 9 -4 9 -8z m534 -8 c3 -8 2 -12 -4
-9 -6 3 -10 10 -10 16 0 14 7 11 14 -7z m-254 -50 c0 -8 -19 -13 -24 -6 -3 5
1 9 9 9 8 0 15 -2 15 -3z m475 -13 c3 -5 2 -12 -3 -15 -5 -3 -9 1 -9 9 0 17 3
19 12 6z m1131 -33 c3 -4 -1 -5 -10 -4 -8 1 -18 5 -22 8 -3 4 1 5 10 4 8 -1
18 -5 22 -8z m2074 -22 c0 -2 -8 -10 -17 -17 -16 -13 -17 -12 -4 4 13 16 21
21 21 13z m-4180 -20 c0 -2 -8 -10 -17 -17 -16 -13 -17 -12 -4 4 13 16 21 21
21 13z m2356 -16 c0 -12 -4 -16 -9 -11 -5 5 -6 14 -3 20 10 15 12 14 12 -9z
m118 -10 c-6 -6 -10 -3 -10 10 0 13 4 16 10 10 7 -7 7 -13 0 -20z m-2770 12
c3 -5 -1 -9 -9 -9 -8 0 -12 4 -9 9 3 4 7 8 9 8 2 0 6 -4 9 -8z m1516 2 c0 -8
-19 -13 -24 -6 -3 5 1 9 9 9 8 0 15 -2 15 -3z m245 -64 c3 -6 -1 -7 -9 -4 -18
7 -21 14 -7 14 6 0 13 -4 16 -10z m640 0 c-3 -5 -12 -10 -18 -10 -7 0 -6 4 3
10 19 12 23 12 15 0z m1752 -25 c0 -8 -4 -12 -9 -9 -5 3 -6 10 -3 15 9 13 12
11 12 -6z m-3420 -80 c0 -8 -4 -12 -9 -9 -5 3 -6 10 -3 15 9 13 12 11 12 -6z
m2074 -8 c-10 -9 -11 -8 -5 6 3 10 9 15 12 12 3 -3 0 -11 -7 -18z m-2015 -33
c1 -9 0 -13 -4 -10 -3 4 -7 14 -8 22 -1 9 0 13 4 10 3 -4 7 -14 8 -22z m-476
-78 c0 -2 -8 -10 -17 -17 -16 -13 -17 -12 -4 4 13 16 21 21 21 13z m3841 -13
c13 -16 12 -17 -3 -4 -17 13 -22 21 -14 21 2 0 10 -8 17 -17z m-2391 3 c0 -2
-8 -10 -17 -17 -16 -13 -17 -12 -4 4 13 16 21 21 21 13z m2041 -33 c13 -16 12
-17 -3 -4 -17 13 -22 21 -14 21 2 0 10 -8 17 -17z m-1097 -51 c3 -5 -1 -9 -9
-9 -8 0 -12 4 -9 9 3 4 7 8 9 8 2 0 6 -4 9 -8z m-2373 -99 c13 -16 12 -17 -3
-4 -10 7 -18 15 -18 17 0 8 8 3 21 -13z m392 2 c-3 -9 -8 -14 -10 -11 -3 3 -2
9 2 15 9 16 15 13 8 -4z m4642 6 c3 -5 2 -12 -3 -15 -5 -3 -9 1 -9 9 0 17 3
19 12 6z m-5455 -7 c0 -8 -19 -13 -24 -6 -3 5 1 9 9 9 8 0 15 -2 15 -3z m1840
-8 c0 -2 -8 -10 -17 -17 -16 -13 -17 -12 -4 4 13 16 21 21 21 13z m-1916 -134
c2 -4 -4 -8 -14 -8 -10 0 -16 4 -14 8 3 4 9 8 14 8 5 0 11 -4 14 -8z m956
-106 c0 -2 -8 -10 -17 -17 -16 -13 -17 -12 -4 4 13 16 21 21 21 13z m1755
-145 c3 -5 2 -12 -3 -15 -5 -3 -9 1 -9 9 0 17 3 19 12 6z m646 -68 c13 -16 12
-17 -3 -4 -17 13 -22 21 -14 21 2 0 10 -8 17 -17z m-2720 -40 c13 -16 12 -17
-3 -4 -10 7 -18 15 -18 17 0 8 8 3 21 -13z m-226 -132 c3 -5 2 -12 -3 -15 -5
-3 -9 1 -9 9 0 17 3 19 12 6z m5120 -10 c3 -5 2 -12 -3 -15 -5 -3 -9 1 -9 9 0
17 3 19 12 6z m-4900 -109 c-3 -3 -11 0 -18 7 -9 10 -8 11 6 5 10 -3 15 -9 12
-12z m1861 -52 c0 -12 -4 -16 -9 -11 -5 5 -6 14 -3 20 10 15 12 14 12 -9z
m-2442 -330 c-6 -6 -10 -3 -10 10 0 13 4 16 10 10 7 -7 7 -13 0 -20z m4877 3
c13 -16 12 -17 -3 -4 -10 7 -18 15 -18 17 0 8 8 3 21 -13z m-4935 -28 c-1 -8
-5 -17 -8 -21 -5 -4 -4 16 1 34 3 9 9 -1 7 -13z m324 -21 c0 -8 -19 -13 -24
-6 -3 5 1 9 9 9 8 0 15 -2 15 -3z m160 -38 c0 -2 -7 -7 -16 -10 -8 -3 -12 -2
-9 4 6 10 25 14 25 6z m2335 -55 c3 -5 2 -12 -3 -15 -5 -3 -9 1 -9 9 0 17 3
19 12 6z m2436 -18 c13 -16 12 -17 -3 -4 -10 7 -18 15 -18 17 0 8 8 3 21 -13z
m433 9 c3 -5 -1 -9 -9 -9 -8 0 -12 4 -9 9 3 4 7 8 9 8 2 0 6 -4 9 -8z m-2484
-6 c0 -2 -8 -10 -17 -17 -16 -13 -17 -12 -4 4 13 16 21 21 21 13z m-2720 -60
c-7 -7 -13 -7 -20 0 -6 6 -3 10 10 10 13 0 16 -4 10 -10z m311 -3 c13 -16 12
-17 -3 -4 -10 7 -18 15 -18 17 0 8 8 3 21 -13z m-477 -31 c3 -5 -1 -9 -9 -9
-8 0 -12 4 -9 9 3 4 7 8 9 8 2 0 6 -4 9 -8z m656 2 c0 -8 -19 -13 -24 -6 -3 5
1 9 9 9 8 0 15 -2 15 -3z m-916 -74 c-6 -6 -10 -3 -10 10 0 13 4 16 10 10 7
-7 7 -13 0 -20z m1871 -90 c-3 -5 -12 -10 -18 -10 -7 0 -6 4 3 10 19 12 23 12
15 0z m1270 -8 c-3 -3 -11 0 -18 7 -9 10 -8 11 6 5 10 -3 15 -9 12 -12z m261
-52 c0 -12 -4 -16 -9 -11 -5 5 -6 14 -3 20 10 15 12 14 12 -9z m-290 -2 c3 -4
-1 -5 -10 -4 -8 1 -18 5 -22 8 -3 4 1 5 10 4 8 -1 18 -5 22 -8z m354 -39 c0
-5 -4 -9 -8 -9 -5 0 -9 7 -9 15 0 8 4 12 9 9 4 -3 8 -9 8 -15z m-1445 -27 c-3
-3 -11 0 -18 7 -9 10 -8 11 6 5 10 -3 15 -9 12 -12z m805 4 c-7 -7 -13 -7 -20
0 -6 6 -3 10 10 10 13 0 16 -4 10 -10z m320 8 c0 -8 -19 -13 -24 -6 -3 5 1 9
9 9 8 0 15 -2 15 -3z m-2243 -19 c0 -8 -4 -12 -9 -9 -5 3 -6 10 -3 15 9 13 12
11 12 -6z m-633 -143 c3 -5 -1 -9 -9 -9 -8 0 -12 4 -9 9 3 4 7 8 9 8 2 0 6 -4
9 -8z m3133 -97 c0 -8 -4 -12 -9 -9 -5 3 -6 10 -3 15 9 13 12 11 12 -6z m-522
-4 c3 -5 2 -12 -3 -15 -5 -3 -9 1 -9 9 0 17 3 19 12 6z m2402 -6 c0 -8 -4 -12
-9 -9 -5 3 -6 10 -3 15 9 13 12 11 12 -6z m-4196 -152 c13 -16 12 -17 -3 -4
-17 13 -22 21 -14 21 2 0 10 -8 17 -17z m1035 -3 c0 -12 -4 -16 -9 -11 -5 5
-6 14 -3 20 10 15 12 14 12 -9z m509 1 c-9 -8 -36 -10 -30 -2 2 4 11 8 20 8 8
0 13 -3 10 -6z m-1715 -15 c0 -2 -8 -10 -17 -17 -16 -13 -17 -12 -4 4 13 16
21 21 21 13z m2231 -83 c13 -16 12 -17 -3 -4 -17 13 -22 21 -14 21 2 0 10 -8
17 -17z m319 3 c0 -2 -7 -7 -16 -10 -8 -3 -12 -2 -9 4 6 10 25 14 25 6z m314
-4 c3 -5 -1 -9 -9 -9 -8 0 -12 4 -9 9 3 4 7 8 9 8 2 0 6 -4 9 -8z m-349 -61
c-9 -8 -36 -10 -30 -2 2 4 11 8 20 8 8 0 13 -3 10 -6z m1635 -15 c0 -2 -7 -7
-16 -10 -8 -3 -12 -2 -9 4 6 10 25 14 25 6z m-4325 -375 c3 -5 2 -12 -3 -15
-5 -3 -9 1 -9 9 0 17 3 19 12 6z m502 -246 c0 -8 -4 -12 -9 -9 -5 3 -6 10 -3
15 9 13 12 11 12 -6z m1921 -10 c-3 -3 -9 2 -12 12 -6 14 -5 15 5 6 7 -7 10
-15 7 -18z m-2807 -2 c13 -16 12 -17 -3 -4 -10 7 -18 15 -18 17 0 8 8 3 21
-13z m3673 9 c3 -5 -1 -9 -9 -9 -8 0 -12 4 -9 9 3 4 7 8 9 8 2 0 6 -4 9 -8z
m-410 -100 c3 -5 -1 -9 -9 -9 -8 0 -12 4 -9 9 3 4 7 8 9 8 2 0 6 -4 9 -8z
m1767 -39 c13 -16 12 -17 -3 -4 -10 7 -18 15 -18 17 0 8 8 3 21 -13z m-4545
-23 c0 -12 -4 -16 -9 -11 -5 5 -6 14 -3 20 10 15 12 14 12 -9z m1309 1 c-9 -8
-36 -10 -30 -2 2 4 11 8 20 8 8 0 13 -3 10 -6z m3406 -14 c-10 -9 -11 -8 -5 6
3 10 9 15 12 12 3 -3 0 -11 -7 -18z m-3371 -31 c0 -2 -8 -10 -17 -17 -16 -13
-17 -12 -4 4 13 16 21 21 21 13z m-1920 -12 c0 -8 -19 -13 -24 -6 -3 5 1 9 9
9 8 0 15 -2 15 -3z m330 0 c0 -8 -19 -13 -24 -6 -3 5 1 9 9 9 8 0 15 -2 15 -3z
m954 -2 c3 -5 -1 -9 -9 -9 -8 0 -12 4 -9 9 3 4 7 8 9 8 2 0 6 -4 9 -8z m960 0
c3 -5 -1 -9 -9 -9 -8 0 -12 4 -9 9 3 4 7 8 9 8 2 0 6 -4 9 -8z m-2080 -40 c2
-4 -4 -8 -14 -8 -10 0 -16 4 -14 8 3 4 9 8 14 8 5 0 11 -4 14 -8z m370 -68 c3
-8 2 -12 -4 -9 -6 3 -10 10 -10 16 0 14 7 11 14 -7z m1923 1 c0 -8 -4 -12 -9
-9 -5 3 -6 10 -3 15 9 13 12 11 12 -6z m1387 -53 c3 -5 -1 -9 -9 -9 -8 0 -12
4 -9 9 3 4 7 8 9 8 2 0 6 -4 9 -8z m806 -116 c0 -2 -8 -10 -17 -17 -16 -13
-17 -12 -4 4 13 16 21 21 21 13z m325 -135 c3 -5 2 -12 -3 -15 -5 -3 -9 1 -9
9 0 17 3 19 12 6z m-4015 -55 c0 -2 -8 -10 -17 -17 -16 -13 -17 -12 -4 4 13
16 21 21 21 13z m3357 -31 c0 -8 -4 -12 -9 -9 -5 3 -6 10 -3 15 9 13 12 11 12
-6z m318 6 c3 -5 2 -12 -3 -15 -5 -3 -9 1 -9 9 0 17 3 19 12 6z m-1275 -55 c0
-2 -8 -10 -17 -17 -16 -13 -17 -12 -4 4 13 16 21 21 21 13z m-619 -33 c13 -16
12 -17 -3 -4 -17 13 -22 21 -14 21 2 0 10 -8 17 -17z m-2167 -169 c3 -8 2 -12
-4 -9 -6 3 -10 10 -10 16 0 14 7 11 14 -7z m387 -51 c13 -16 12 -17 -3 -4 -17
13 -22 21 -14 21 2 0 10 -8 17 -17z m2633 -101 c3 -5 -1 -9 -9 -9 -8 0 -12 4
-9 9 3 4 7 8 9 8 2 0 6 -4 9 -8z m-883 -29 c13 -16 12 -17 -3 -4 -17 13 -22
21 -14 21 2 0 10 -8 17 -17z m1640 -20 c13 -16 12 -17 -3 -4 -10 7 -18 15 -18
17 0 8 8 3 21 -13z m-2116 -32 c3 -5 2 -12 -3 -15 -5 -3 -9 1 -9 9 0 17 3 19
12 6z"/>
</g>
</svg>
